<?xml version="1.0" standalone="no"?>
<!DOCTYPE svg PUBLIC "-//W3C//DTD SVG 20010904//EN"
 "http://www.w3.org/TR/2001/REC-SVG-20010904/DTD/svg10.dtd">
<svg version="1.0" xmlns="http://www.w3.org/2000/svg"
 width="1024.000000pt" height="1024.000000pt" viewBox="0 0 1024.000000 1024.000000"
 preserveAspectRatio="xMidYMid meet">

<g transform="translate(0.000000,1024.000000) scale(0.100000,-0.100000)"
fill="#000000" stroke="none">
<path d="M3105 8540 c-239 -19 -474 -103 -663 -237 -300 -214 -503 -533 -557
-879 -14 -88 -15 -355 -12 -2414 3 -2181 4 -2319 21 -2390 46 -195 113 -353
207 -491 164 -240 381 -407 641 -494 205 -68 73 -65 2453 -65 1405 0 2179 4
2232 10 556 70 1003 519 1092 1100 7 42 11 879 11 2365 1 2091 0 2309 -15
2395 -46 269 -176 514 -379 716 -205 205 -403 308 -711 371 -72 15 -275 17
-2150 19 -1138 1 -2115 -2 -2170 -6z m4265 -265 c239 -36 425 -130 595 -300
151 -151 244 -318 289 -515 l21 -95 0 -2300 c0 -1900 -2 -2313 -14 -2375 -40
-221 -131 -405 -278 -561 -169 -178 -374 -277 -627 -299 -149 -13 -4142 -13
-4291 0 -146 13 -249 41 -370 100 -262 128 -450 362 -536 671 l-24 84 -3 2335
c-3 2587 -7 2397 62 2582 18 47 57 126 87 174 66 108 224 270 328 339 122 80
287 144 426 165 28 4 993 8 2145 9 1777 1 2109 -1 2190 -14z"/>
<path d="M7114 7783 c-12 -2 -39 -19 -59 -36 -30 -26 -38 -41 -42 -78 -5 -44
-6 -45 -40 -46 -44 -1 -81 -28 -110 -79 -21 -36 -23 -52 -23 -199 0 -136 3
-166 20 -202 22 -49 70 -83 118 -83 30 0 32 -2 32 -37 0 -47 30 -97 72 -123
30 -18 51 -20 208 -20 157 0 178 2 208 20 42 26 72 76 72 123 0 35 2 37 30 37
45 0 85 24 112 67 22 36 23 47 23 208 0 153 -2 174 -21 210 -24 45 -69 76
-114 77 -28 1 -30 3 -30 41 0 49 -46 99 -105 116 -37 10 -304 13 -351 4z m267
-229 c128 -66 172 -204 106 -334 -44 -87 -159 -137 -250 -110 -136 39 -203
164 -163 303 28 97 111 156 219 157 33 0 71 -7 88 -16z"/>
<path d="M7242 7435 c-46 -20 -68 -75 -52 -127 33 -111 191 -96 207 19 6 49
-8 78 -50 103 -38 23 -60 24 -105 5z"/>
<path d="M4925 7729 c-548 -51 -1023 -265 -1380 -623 -179 -179 -303 -349
-427 -583 l-70 -133 -170 0 -170 0 -39 -39 c-44 -44 -50 -80 -22 -138 29 -61
61 -73 197 -73 108 0 118 -2 113 -17 -75 -256 -98 -391 -104 -608 -5 -160 2
-288 23 -432 l6 -41 -48 -8 c-87 -12 -120 -38 -124 -99 -4 -59 0 -75 29 -107
28 -32 33 -33 117 -38 l88 -5 32 -91 c17 -50 50 -134 73 -185 22 -52 41 -97
41 -102 0 -4 -70 -7 -155 -7 l-154 0 -35 -30 c-59 -52 -55 -138 9 -188 27 -21
37 -22 259 -22 l232 0 18 -30 c31 -53 137 -182 223 -271 l83 -86 -57 -6 c-32
-3 -212 -5 -400 -4 l-343 2 -31 -31 c-63 -63 -43 -167 38 -201 32 -13 110 -14
577 -12 l541 3 64 -42 c82 -54 239 -130 366 -177 433 -162 963 -179 1413 -45
131 39 327 123 429 185 l78 47 66 -73 66 -73 -14 -34 c-45 -107 -36 -187 37
-337 44 -90 65 -117 201 -265 371 -405 383 -416 472 -460 105 -52 208 -74 302
-65 359 34 592 387 479 724 -15 46 -45 109 -65 140 -21 31 -161 181 -311 333
-249 252 -279 279 -343 310 -63 30 -79 33 -166 34 l-96 1 -72 78 -72 77 43 47
c159 171 319 425 407 646 130 330 175 559 175 895 0 222 -13 339 -61 525 -14
55 -28 110 -30 123 l-5 22 224 0 c213 0 227 1 252 21 54 42 71 112 41 169 -31
60 -33 60 -336 60 l-277 0 -62 117 c-129 246 -265 428 -466 625 -305 297 -701
495 -1136 567 -234 39 -391 47 -573 30z m505 -273 c368 -63 713 -224 980 -458
365 -320 618 -796 680 -1278 27 -203 9 -519 -41 -730 -66 -283 -216 -593 -389
-805 -422 -516 -999 -787 -1625 -762 -657 27 -1223 344 -1589 891 -297 443
-409 996 -305 1505 27 134 93 348 141 461 199 469 596 868 1049 1054 152 62
395 123 564 140 91 9 444 -3 535 -18z m1193 -3782 c26 -28 47 -53 47 -55 0 -3
-29 -35 -65 -71 l-64 -66 -56 64 -57 64 34 27 c18 16 49 42 68 60 19 18 37 31
40 30 3 -1 27 -25 53 -53z m437 -228 c59 -39 502 -502 535 -559 27 -47 30 -60
30 -142 0 -105 -19 -157 -81 -219 -110 -110 -282 -118 -411 -20 -33 25 -426
447 -482 518 -113 142 -12 361 201 438 69 24 157 18 208 -16z"/>
<path d="M4930 7070 c-436 -55 -803 -252 -1057 -568 -246 -306 -373 -663 -373
-1047 0 -287 52 -509 172 -750 226 -449 619 -745 1123 -845 152 -30 418 -31
586 -1 221 39 422 118 608 242 107 71 294 246 375 353 237 309 359 725 326
1114 -25 307 -113 561 -281 812 -238 357 -598 593 -1019 670 -132 24 -350 33
-460 20z m379 -266 c331 -48 659 -248 864 -524 121 -164 218 -398 253 -609 21
-133 15 -382 -14 -516 -110 -511 -475 -889 -991 -1027 -110 -30 -126 -31 -311
-32 -151 -1 -213 3 -277 17 -178 38 -344 107 -498 207 -124 80 -305 270 -382
400 -77 128 -125 245 -166 399 -29 110 -30 126 -31 311 0 217 15 316 75 487
125 358 415 668 750 802 230 92 482 122 728 85z"/>
<path d="M5564 6056 c-17 -8 -40 -27 -51 -42 -17 -25 -114 -242 -197 -439 -13
-33 -40 -93 -58 -133 l-34 -73 -51 83 c-28 46 -85 133 -125 193 -62 93 -81
114 -122 134 -42 21 -52 22 -87 12 -21 -6 -54 -27 -72 -46 -35 -36 -156 -241
-232 -395 l-47 -94 -49 100 c-61 128 -98 164 -169 164 -83 0 -106 -30 -196
-250 -100 -245 -99 -243 -79 -295 26 -70 78 -100 142 -83 44 11 65 46 102 163
17 55 35 106 40 114 7 11 19 -6 49 -65 21 -43 45 -96 51 -116 7 -21 26 -52 42
-69 27 -29 33 -31 81 -27 43 5 57 11 79 38 15 17 35 53 44 78 23 62 236 482
245 482 9 0 200 -291 264 -402 47 -84 121 -102 181 -45 27 26 57 88 151 312
158 380 153 370 163 359 4 -5 41 -85 81 -179 207 -484 261 -601 290 -627 69
-64 191 -9 193 86 0 28 -75 201 -243 561 -215 460 -223 475 -275 499 -40 19
-70 20 -111 2z"/>
<path d="M3030 7697 c-73 -25 -102 -121 -57 -188 41 -61 105 -76 165 -39 89
55 75 184 -25 226 -38 16 -38 16 -83 1z"/>
<path d="M2709 7455 c-28 -15 -59 -70 -59 -104 0 -66 62 -131 125 -131 70 0
133 77 121 149 -8 54 -63 101 -118 101 -24 -1 -55 -7 -69 -15z"/>
<path d="M3301 7445 c-119 -101 11 -289 140 -202 60 40 77 114 40 171 -41 61
-126 76 -180 31z"/>
<path d="M3008 7222 c-58 -35 -74 -116 -35 -173 42 -62 108 -76 168 -36 48 32
68 91 48 143 -28 73 -118 106 -181 66z"/>
<path d="M2763 3135 c-71 -31 -84 -139 -24 -199 l31 -31 898 -3 c1010 -2 947
-7 986 72 26 53 14 99 -37 140 l-39 31 -891 2 c-744 2 -897 0 -924 -12z"/>
<path d="M2752 2504 c-69 -48 -67 -147 4 -203 l27 -21 1308 0 1309 0 38 34
c34 31 37 39 37 86 0 47 -3 55 -37 86 l-38 34 -1313 0 c-1173 0 -1315 -2
-1335 -16z"/>
</g>
</svg>
