<?xml version="1.0" encoding="UTF-8"?>
<svg version="1.1" xmlns="http://www.w3.org/2000/svg" width="1024" height="1024">
<path d="M0 0 C337.92 0 675.84 0 1024 0 C1024 337.92 1024 675.84 1024 1024 C686.08 1024 348.16 1024 0 1024 C0 686.08 0 348.16 0 0 Z " fill="#FEFEFC" transform="translate(0,0)"/>
<path d="M0 0 C1.640186 0.00697906 1.640186 0.00697906 3.31350708 0.01409912 C19.43774516 0.09442094 35.28820057 0.4474586 51.1875 3.375 C52.22036133 3.55772461 53.25322266 3.74044922 54.31738281 3.92871094 C80.7438109 8.76020139 107.15261508 17.34709394 131.1875 29.375 C131.96125977 29.75446777 132.73501953 30.13393555 133.53222656 30.52490234 C155.64964738 41.42945279 176.76158281 55.3194176 194.81640625 72.1796875 C196.82422323 74.03865478 198.8661383 75.83034933 200.9375 77.6171875 C211.96731635 87.24148204 222.24749373 97.78486054 231.1875 109.375 C232.00863281 110.37917969 232.82976563 111.38335937 233.67578125 112.41796875 C280.84668272 170.29063861 304.68275679 246.47453584 297.46875 321.00390625 C294.97654003 345.254181 290.65852799 369.14010295 283.1875 392.375 C282.91099609 393.23593262 282.63449219 394.09686523 282.34960938 394.98388672 C268.67444738 436.66534832 244.79556023 475.85896488 213.1875 506.375 C210.64380588 508.89411737 208.13366957 511.43183958 205.671875 514.03125 C197.54715523 522.48095856 188.67373357 529.5113803 179.1875 536.375 C178.52202148 536.85855957 177.85654297 537.34211914 177.17089844 537.84033203 C167.36135201 544.91522912 157.14508696 551.16316431 146.58007812 557.04296875 C145.02036547 557.9113149 143.46417295 558.78602361 141.91210938 559.66796875 C129.1081909 566.92389465 115.81346559 572.29173965 102.00390625 577.33984375 C99.71104001 578.18257545 97.43109891 579.04775994 95.15625 579.9375 C77.26918101 586.75162152 58.08371167 589.84029055 39.1875 592.375 C38.20401077 592.50740585 38.20401077 592.50740585 37.20065308 592.64248657 C25.48598361 594.18310455 13.93487836 594.73953942 2.125 594.6875 C1.2795462 594.68600952 0.43409241 594.68451904 -0.4369812 594.6829834 C-14.74520965 594.63790487 -28.67839579 593.69772865 -42.8125 591.375 C-43.72628418 591.23578125 -44.64006836 591.0965625 -45.58154297 590.953125 C-68.10153796 587.50874977 -89.79417768 581.11590105 -110.8125 572.375 C-111.62992676 572.03774902 -112.44735352 571.70049805 -113.28955078 571.35302734 C-149.55489551 556.21312615 -181.82489205 533.40839202 -209.625 505.8125 C-210.49664795 504.95019775 -211.3682959 504.08789551 -212.26635742 503.19946289 C-218.20188645 497.23456403 -223.60888959 490.98543531 -228.8125 484.375 C-229.35720947 483.6843042 -229.90191895 482.9936084 -230.46313477 482.28198242 C-247.86084906 459.93749003 -261.95582538 435.53313633 -272.8125 409.375 C-273.11994141 408.63846191 -273.42738281 407.90192383 -273.74414062 407.14306641 C-283.40837351 383.57728719 -288.91772068 358.60769496 -291.8125 333.375 C-291.92819336 332.41110352 -292.04388672 331.44720703 -292.16308594 330.45410156 C-301.08544749 253.96537 -280.00294368 179.4661087 -233.8125 118.375 C-233.15145264 117.49328125 -233.15145264 117.49328125 -232.47705078 116.59375 C-220.02561072 100.04723121 -205.49691828 84.88112872 -189.8125 71.375 C-189.17103027 70.82150879 -188.52956055 70.26801758 -187.86865234 69.69775391 C-177.37992591 60.71616613 -166.53178037 52.67839287 -154.8125 45.375 C-154.09465332 44.92592285 -153.37680664 44.4768457 -152.63720703 44.01416016 C-106.36196252 15.40138208 -54.49888624 -0.41551723 0 0 Z " fill="#FEFEFE" transform="translate(508.8125,203.625)"/>
<path d="M0 0 C1.640186 0.00697906 1.640186 0.00697906 3.31350708 0.01409912 C19.43774516 0.09442094 35.28820057 0.4474586 51.1875 3.375 C52.22036133 3.55772461 53.25322266 3.74044922 54.31738281 3.92871094 C80.7438109 8.76020139 107.15261508 17.34709394 131.1875 29.375 C131.96125977 29.75446777 132.73501953 30.13393555 133.53222656 30.52490234 C155.64964738 41.42945279 176.76158281 55.3194176 194.81640625 72.1796875 C196.82422323 74.03865478 198.8661383 75.83034933 200.9375 77.6171875 C211.96731635 87.24148204 222.24749373 97.78486054 231.1875 109.375 C232.00863281 110.37917969 232.82976563 111.38335937 233.67578125 112.41796875 C280.84668272 170.29063861 304.68275679 246.47453584 297.46875 321.00390625 C294.97654003 345.254181 290.65852799 369.14010295 283.1875 392.375 C282.91099609 393.23593262 282.63449219 394.09686523 282.34960938 394.98388672 C268.67444738 436.66534832 244.79556023 475.85896488 213.1875 506.375 C210.64380588 508.89411737 208.13366957 511.43183958 205.671875 514.03125 C197.54715523 522.48095856 188.67373357 529.5113803 179.1875 536.375 C178.52202148 536.85855957 177.85654297 537.34211914 177.17089844 537.84033203 C167.36135201 544.91522912 157.14508696 551.16316431 146.58007812 557.04296875 C145.02036547 557.9113149 143.46417295 558.78602361 141.91210938 559.66796875 C129.1081909 566.92389465 115.81346559 572.29173965 102.00390625 577.33984375 C99.71104001 578.18257545 97.43109891 579.04775994 95.15625 579.9375 C77.26918101 586.75162152 58.08371167 589.84029055 39.1875 592.375 C38.20401077 592.50740585 38.20401077 592.50740585 37.20065308 592.64248657 C25.48598361 594.18310455 13.93487836 594.73953942 2.125 594.6875 C1.2795462 594.68600952 0.43409241 594.68451904 -0.4369812 594.6829834 C-14.74520965 594.63790487 -28.67839579 593.69772865 -42.8125 591.375 C-43.72628418 591.23578125 -44.64006836 591.0965625 -45.58154297 590.953125 C-68.10153796 587.50874977 -89.79417768 581.11590105 -110.8125 572.375 C-111.62992676 572.03774902 -112.44735352 571.70049805 -113.28955078 571.35302734 C-149.55489551 556.21312615 -181.82489205 533.40839202 -209.625 505.8125 C-210.49664795 504.95019775 -211.3682959 504.08789551 -212.26635742 503.19946289 C-218.20188645 497.23456403 -223.60888959 490.98543531 -228.8125 484.375 C-229.35720947 483.6843042 -229.90191895 482.9936084 -230.46313477 482.28198242 C-247.86084906 459.93749003 -261.95582538 435.53313633 -272.8125 409.375 C-273.11994141 408.63846191 -273.42738281 407.90192383 -273.74414062 407.14306641 C-283.40837351 383.57728719 -288.91772068 358.60769496 -291.8125 333.375 C-291.92819336 332.41110352 -292.04388672 331.44720703 -292.16308594 330.45410156 C-301.08544749 253.96537 -280.00294368 179.4661087 -233.8125 118.375 C-233.15145264 117.49328125 -233.15145264 117.49328125 -232.47705078 116.59375 C-220.02561072 100.04723121 -205.49691828 84.88112872 -189.8125 71.375 C-189.17103027 70.82150879 -188.52956055 70.26801758 -187.86865234 69.69775391 C-177.37992591 60.71616613 -166.53178037 52.67839287 -154.8125 45.375 C-154.09465332 44.92592285 -153.37680664 44.4768457 -152.63720703 44.01416016 C-106.36196252 15.40138208 -54.49888624 -0.41551723 0 0 Z M-130.14746094 117.05224609 C-131.59280511 118.20046819 -133.06384677 119.31619922 -134.5390625 120.42578125 C-148.37970043 131.11692417 -161.32422719 144.39063626 -171.8125 158.375 C-172.50601563 159.2515625 -173.19953125 160.128125 -173.9140625 161.03125 C-200.28911002 194.95533939 -216.36111447 234.61472081 -220.8125 277.375 C-220.9045874 278.25115967 -220.9966748 279.12731934 -221.09155273 280.0300293 C-224.68608339 316.57926871 -217.97857153 352.6749497 -203.8125 386.375 C-203.50618652 387.10879883 -203.19987305 387.84259766 -202.88427734 388.59863281 C-195.40586528 406.2058288 -185.0088381 422.66375807 -172.8125 437.375 C-172.35020996 437.93735352 -171.88791992 438.49970703 -171.41162109 439.07910156 C-162.11271909 450.34955708 -152.14580702 461.1098147 -140.8125 470.375 C-139.50539063 471.4578125 -139.50539063 471.4578125 -138.171875 472.5625 C-93.63343673 508.19325062 -34.17862862 527.86697375 22.81640625 521.61328125 C29.97349462 520.72560176 37.08497259 519.62356139 44.1875 518.375 C45.425 518.1586792 45.425 518.1586792 46.6875 517.93798828 C88.13019148 510.30624264 127.13777384 488.53628338 157.1875 459.375 C157.73003418 458.85824707 158.27256836 458.34149414 158.83154297 457.80908203 C167.12296392 449.90681548 174.35830174 441.56183658 181.1875 432.375 C181.82316895 431.538479 181.82316895 431.538479 182.47167969 430.68505859 C201.4565442 405.68078086 215.19237329 375.17478114 221.1875 344.375 C221.40164551 343.30209717 221.40164551 343.30209717 221.62011719 342.20751953 C226.96908867 315.08402708 227.92237614 284.52420248 222.1875 257.375 C221.98882324 256.40095215 221.79014648 255.4269043 221.58544922 254.42333984 C218.47982909 239.50938428 214.18656344 225.37663089 208.1875 211.375 C207.86523438 210.62283203 207.54296875 209.87066406 207.2109375 209.09570312 C190.45902301 170.65482617 161.7353852 135.16724598 127.1875 111.375 C126.58389648 110.95863281 125.98029297 110.54226563 125.35839844 110.11328125 C121.37793297 107.40261717 117.31336139 104.85734585 113.1875 102.375 C112.58147949 102.0042334 111.97545898 101.6334668 111.35107422 101.25146484 C89.6230748 88.05042559 64.3968223 79.25818309 39.234375 75.70703125 C37.81928121 75.47748359 36.41212129 75.19510098 35.015625 74.87109375 C25.0365514 72.66053947 14.8549426 72.9784544 4.6875 73 C3.18334534 73.00131424 3.18334534 73.00131424 1.64880371 73.00265503 C-46.33358457 73.14095349 -92.31167614 86.83460988 -130.14746094 117.05224609 Z " fill="#17222A" transform="translate(508.8125,203.625)"/>
<path d="M0 0 C2.24282863 -0.00957349 4.4846862 -0.04056447 6.72729492 -0.07226562 C20.09566579 -0.17203372 32.92508434 1.51837595 45.4753418 6.36523438 C46.26303955 6.66381348 47.0507373 6.96239258 47.86230469 7.27001953 C70.41096477 16.12995933 92.45396634 32.17879459 104.9753418 53.24023438 C105.32790039 53.81854004 105.68045898 54.3968457 106.04370117 54.99267578 C114.72907908 69.31918482 120.43391437 83.96668619 122.1003418 100.74023438 C122.18670898 101.56265625 122.27307617 102.38507813 122.36206055 103.23242188 C122.57158031 105.23449963 122.77419224 107.23729835 122.9753418 109.24023438 C137.12643015 101.83584182 148.24526021 93.04761213 158.1472168 80.47851562 C159.05213867 79.37056641 159.05213867 79.37056641 159.9753418 78.24023438 C160.3053418 78.24023438 160.6353418 78.24023438 160.9753418 78.24023438 C160.47767116 85.97537701 159.27254092 93.28334487 157.4128418 100.80273438 C157.01585083 102.41740601 157.01585083 102.41740601 156.61083984 104.06469727 C148.90658929 134.74614732 139.08814397 165.61262759 119.0769043 190.59570312 C116.91375984 193.24226756 116.91375984 193.24226756 114.9753418 196.24023438 C114.3153418 196.24023438 113.6553418 196.24023438 112.9753418 196.24023438 C112.75233398 196.79453125 112.52932617 197.34882812 112.29956055 197.91992188 C102.16546962 215.67700155 75.26688267 227.11111051 56.8503418 233.11523438 C55.98078857 233.40164795 55.11123535 233.68806152 54.21533203 233.9831543 C41.75764007 237.83885808 29.13952993 238.65346016 16.1628418 238.61523438 C15.11193359 238.61441864 15.11193359 238.61441864 14.03979492 238.61358643 C3.17835768 238.5749105 -6.67676507 237.7924962 -17.0246582 234.24023438 C-17.68240234 234.02592773 -18.34014648 233.81162109 -19.01782227 233.59082031 C-38.25182772 227.28353547 -54.30237266 217.12487264 -69.0246582 203.24023438 C-69.62793945 202.68980469 -70.2312207 202.139375 -70.8527832 201.57226562 C-90.90510478 182.59752207 -105.29337268 152.89007399 -106.08325195 125.18505859 C-106.08655616 123.53667145 -106.05903697 121.88826629 -106.0246582 120.24023438 C-106.86125977 120.61535156 -107.69786133 120.99046875 -108.55981445 121.37695312 C-123.48620065 127.93927353 -139.48164947 134.63709948 -156.0246582 134.24023438 C-155.28731445 133.51707031 -154.5499707 132.79390625 -153.7902832 132.04882812 C-138.66992334 116.69354742 -129.39663859 97.77505903 -119.77368164 78.76953125 C-112.50713823 64.43168322 -104.20444642 51.90357745 -93.0246582 40.24023438 C-92.27958008 39.43199219 -91.53450195 38.62375 -90.7668457 37.79101562 C-71.40559564 17.43933858 -46.08478185 6.89588723 -19.0246582 1.24023438 C-18.27635742 1.06371338 -17.52805664 0.88719238 -16.75708008 0.70532227 C-11.23808894 -0.23406999 -5.58673892 0.01435411 0 0 Z " fill="#18222A" transform="translate(504.024658203125,380.759765625)"/>
<path d="M0 0 C0.98871094 0.35191406 1.97742188 0.70382812 2.99609375 1.06640625 C14.65665599 5.56723473 24.12383088 12.26792454 33 21 C33.7734375 21.76054687 34.546875 22.52109375 35.34375 23.3046875 C46.11431885 34.55476798 54.33034988 49.26322207 55 65 C54.25878906 64.70867187 53.51757812 64.41734375 52.75390625 64.1171875 C39.36374552 58.90535015 26.13277449 53.80197616 12 51 C12.67804688 51.52207031 13.35609375 52.04414063 14.0546875 52.58203125 C24.61520931 60.93391207 33.43294393 70.1492973 40 82 C40.50789062 82.86496094 41.01578125 83.72992188 41.5390625 84.62109375 C46.73795095 94.85912826 46.75607871 107.66624399 44.11328125 118.703125 C39.26171259 131.27529627 29.73784667 140.9364212 17.6875 146.8125 C0.39895735 153.97973897 -17.74390707 154.05879638 -35.04833984 147.18652344 C-57.91094674 137.38593762 -75.25354916 119.92266539 -85 97 C-87.6744724 89.48149795 -89.2165281 82.95091186 -89 75 C-88.49251221 75.25168945 -87.98502441 75.50337891 -87.4621582 75.76269531 C-67.49359727 85.77995012 -67.49359727 85.77995012 -45.625 89.0625 C-44.75101562 89.05347656 -43.87703125 89.04445313 -42.9765625 89.03515625 C-42.32429688 89.02355469 -41.67203125 89.01195312 -41 89 C-41.83402344 88.39414062 -42.66804688 87.78828125 -43.52734375 87.1640625 C-56.50126291 77.58153741 -68.58942207 65.7467146 -71.7890625 49.1796875 C-73.22664957 34.32462107 -70.75874806 22.81996934 -61.44140625 11.02734375 C-46.67051201 -5.08957922 -19.6743569 -7.21489671 0 0 Z " fill="#FDFDFD" transform="translate(532,425)"/>
<path d="M0 0 C3.99500618 1.3697164 6.80009492 3.25722422 10 6 C8.04196493 6.05389087 6.08351091 6.09274217 4.125 6.125 C3.03445313 6.14820313 1.94390625 6.17140625 0.8203125 6.1953125 C-2 6 -2 6 -4 4 C-2.68 3.67 -1.36 3.34 0 3 C0 2.01 0 1.02 0 0 Z " fill="#24292E" transform="translate(483,509)"/>
<path d="M0 0 C4.95 0.99 4.95 0.99 10 2 C10.33 2.99 10.66 3.98 11 5 C10.01 5.99 9.02 6.98 8 8 C6.66372225 6.85760183 5.33104612 5.71098945 4 4.5625 C3.2575 3.92441406 2.515 3.28632813 1.75 2.62890625 C1.1725 2.09136719 0.595 1.55382812 0 1 C0 0.67 0 0.34 0 0 Z " fill="#2D3036" transform="translate(543,475)"/>
<path d="M0 0 C0.66 0.33 1.32 0.66 2 1 C0.22054913 5.04420651 -2.39529673 8.46078487 -5 12 C-5.66 11.34 -6.32 10.68 -7 10 C-3.535 5.05 -3.535 5.05 0 0 Z " fill="#262E36" transform="translate(404,428)"/>
<path d="M0 0 C0.66 0.66 1.32 1.32 2 2 C1.0479279 3.00596297 0.08812654 4.00461563 -0.875 5 C-1.40867187 5.556875 -1.94234375 6.11375 -2.4921875 6.6875 C-4 8 -4 8 -6 8 C-4.55746343 4.63408134 -2.66735273 2.48952921 0 0 Z " fill="#262D34" transform="translate(297,296)"/>
<path d="M0 0 C0.33 0 0.66 0 1 0 C1 1.98 1 3.96 1 6 C0.01 6.33 -0.98 6.66 -2 7 C-1.125 1.125 -1.125 1.125 0 0 Z " fill="#3B4042" transform="translate(664,459)"/>
</svg>
